# xmcd
#
# Track frame offsets:
#	150
#	12162
#	25610
#	41997
#	54575
#	62762
#	74427
#	85672
#	95845
#	108480
#	120967
#	134245
#	147120
#	175505
#	185545
#	193267
#	210697
#
# Disc length: 3050 seconds
#
# Revision: 1
# Processed by: cddbd v1.5.1PL0 Copyright (c) Steve Scherf et al.
# Submitted via: CDex 1.50Beta5
#
DISCID=f70be811
DTITLE=日本女声合唱団 - 四季の癒し/中田喜直 Disc 1
DYEAR=2002
DGENRE=
TTITLE0=日本女声合唱団/夏の思い出
TTITLE1=ピーナッツ/心の窓にともし灯を
TTITLE2=中原美紗緒/あの人とっても困るのよ
TTITLE3=東京レディース・シンガーズ/さくら
TTITLE4=日本女声合唱団/早春
TTITLE5=ダーク・ダックス/春を歌おう
TTITLE6=ボニージャックス/ああプランタン無理もない
TTITLE7=友竹正則/バラ色の街で
TTITLE8=たいらいさお/ちいさな旅の思い出
TTITLE9=小牧まり/しあわせの窓
TTITLE10=倍賞千恵子/むらさき抒情
TTITLE11=日本女声合唱団/ねむの花
TTITLE12=東京レディース・シンガーズ/すばらしき自然とともに(遺作曲)
TTITLE13=小牧まり/あんまり明るい朝なので
TTITLE14=ダーク・ダックス/冬がくると(スキーのうた)
TTITLE15=小牧まり/暖炉の部屋で
TTITLE16=ボニージャックス/雪の降る街を
EXTD=
EXTT0=
EXTT1=
EXTT2=
EXTT3=
EXTT4=
EXTT5=
EXTT6=
EXTT7=
EXTT8=
EXTT9=
EXTT10=
EXTT11=
EXTT12=
EXTT13=
EXTT14=
EXTT15=
EXTT16=
PLAYORDER=
